<?xml version="1.0" encoding="UTF-8" standalone="no"?>
<!DOCTYPE svg PUBLIC "-//W3C//DTD SVG 1.1//EN" "http://www.w3.org/Graphics/SVG/1.1/DTD/svg11.dtd">
<svg width="100%" height="100%" viewBox="0 0 2410 2016" version="1.1" xmlns="http://www.w3.org/2000/svg" xmlns:xlink="http://www.w3.org/1999/xlink" xml:space="preserve" xmlns:serif="http://www.serif.com/" style="fill-rule:evenodd;clip-rule:evenodd;stroke-linejoin:round;stroke-miterlimit:2;">
    <g transform="matrix(1,0,0,1,-2982.72,-247.157)">
        <g transform="matrix(1.32099,0,0,0.894205,5739,292.405)">
            <g transform="matrix(2.00152,0,0,2.9568,-2310.94,-154.876)">
                <g transform="matrix(192,0,0,192,647.3,271.152)">
                </g>
                <text x="466.081px" y="271.152px" style="font-family:'Arial-Black', 'Arial', sans-serif;font-weight:900;font-size:192px;fill:rgb(239,177,0);">M</text>
            </g>
            <g transform="matrix(1.96846,0,0,2.90752,-2259.03,-303.555)">
                <g transform="matrix(0.517707,0.0385497,-0.0385497,0.517707,424.232,376.502)">
                    <path d="M365.883,52.504L205.469,47.165L180.742,85.563L92.839,64.42L-0,256.087L42.289,292.486L19.961,327.039C12.909,337.953 10.529,350.959 13.26,363.663C15.99,376.367 23.505,387.246 34.418,394.298C42.381,399.444 51.46,402.102 60.722,402.102C63.16,402.102 65.609,401.909 68.055,401.537C71.152,412.55 78.102,422.525 88.443,429.207C96.585,434.469 105.725,436.981 114.766,436.981C117.208,436.981 119.639,436.775 122.044,436.414C125.242,447.854 132.404,457.614 142.467,464.117C150.61,469.379 159.749,471.891 168.79,471.891C184.763,471.891 200.429,464.046 209.724,449.66L216.358,439.392L255.211,465.15L255.373,465.257C263.336,470.403 272.415,473.062 281.677,473.062C285.107,473.062 288.564,472.697 291.997,471.96C304.701,469.229 315.58,461.714 322.632,450.802C327.595,443.121 330.108,434.553 330.377,426.017C332.866,425.871 335.362,425.539 337.847,425.005C350.551,422.274 361.43,414.759 368.482,403.847C373.347,396.319 375.986,387.793 376.259,379.06C378.738,378.913 381.222,378.582 383.695,378.05C396.4,375.319 407.279,367.806 414.331,356.892C419.299,349.204 421.812,340.625 422.076,332.081C437.049,331.212 451.434,323.472 460.178,309.937C467.23,299.023 469.61,286.017 466.881,273.313C464.938,264.277 460.578,256.165 454.313,249.708L496.519,218.455L475.402,191.63L425.867,229.748L242.472,110.338L190.414,189.349L190.334,189.472C185.64,196.732 175.918,198.821 168.658,194.132C161.398,189.441 159.308,179.717 164.013,172.435L223.819,79.562L388.955,81.813L365.883,52.504ZM215.006,380.74L182.034,431.767C177.343,439.029 167.619,441.116 160.36,436.426C156.843,434.153 154.421,430.647 153.542,426.553C152.662,422.459 153.428,418.268 155.701,414.75L188.673,363.723C190.946,360.206 194.451,357.785 198.545,356.905C199.652,356.668 200.765,356.55 201.869,356.55C204.854,356.55 207.78,357.407 210.346,359.066C217.607,363.757 219.697,373.48 215.006,380.74ZM128.011,396.858C123.317,404.118 113.594,406.206 106.335,401.517C99.075,396.826 96.985,387.102 101.677,379.842L134.649,328.815C137.646,324.178 142.692,321.651 147.841,321.651C150.754,321.651 153.701,322.461 156.325,324.157C163.585,328.848 165.675,338.572 160.984,345.832L128.011,396.858ZM73.986,361.949C69.292,369.21 59.568,371.299 52.311,366.609C48.794,364.336 46.372,360.83 45.492,356.736C44.613,352.642 45.379,348.451 47.653,344.934L80.624,293.907C83.621,289.27 88.667,286.743 93.816,286.743C96.729,286.743 99.676,287.553 102.3,289.248C105.817,291.521 108.238,295.026 109.118,299.12C109.998,303.214 109.231,307.406 106.959,310.923L73.986,361.949ZM432.488,292.041C430.215,295.558 426.71,297.979 422.616,298.859C418.522,299.74 414.33,298.972 410.814,296.7L399.875,289.632L348.846,256.659L330.954,284.349L341.894,291.419L381.982,317.323C385.499,319.596 387.92,323.101 388.8,327.195C389.68,331.289 388.913,335.481 386.641,338.998C384.369,342.515 380.862,344.937 376.769,345.817C372.674,346.696 368.484,345.93 364.966,343.658L313.939,310.686L296.047,338.376L336.134,364.278C343.394,368.969 345.484,378.692 340.793,385.953C338.52,389.47 335.014,391.892 330.921,392.772C326.826,393.651 322.636,392.885 319.119,390.613L275.561,362.468L257.669,390.158L290.286,411.234C297.546,415.927 299.637,425.649 294.945,432.91C292.672,436.427 289.167,438.849 285.073,439.729C281.005,440.603 276.841,439.851 273.338,437.612L234.257,411.703L242.7,398.635C257.257,376.106 250.772,345.933 228.243,331.377C217.894,324.69 205.934,322.455 194.614,324.163C191.52,313.14 184.568,303.155 174.22,296.468C163.878,289.786 151.928,287.549 140.615,289.251C137.416,277.815 130.255,268.059 120.195,261.559C101.575,249.525 77.737,251.883 61.804,265.783L40.728,247.643L110.943,102.685L161.84,114.926L136.313,154.565C121.756,177.094 128.241,207.266 150.77,221.823C173.276,236.367 203.412,229.906 217.987,207.431L251.966,155.859L427.836,270.367C431.352,272.64 433.774,276.145 434.654,280.239C435.528,284.332 434.761,288.523 432.488,292.041Z" style="fill:rgb(113,113,123);"/>
                </g>
                <path d="M681.726,521.904L608.338,412.902L655.669,376.812L744.299,477.871L681.726,521.904ZM621.662,415.098L684.274,508.096L729.701,476.129L654.331,390.188L621.662,415.098Z" style="fill:rgb(9,9,11);"/>
                <g transform="matrix(1.8,0,0,1.8,-554,-383.4)">
                    <circle cx="690" cy="478" r="5" style="fill:rgb(36,99,235);"/>
                </g>
                <g transform="matrix(1.8,0,0,1.8,-842,-392.4)">
                    <circle cx="690" cy="478" r="5" style="fill:rgb(36,99,235);"/>
                </g>
                <path d="M476.079,407.764C455.752,445.121 434.476,481.502 410.82,517.195L407.255,522.573L349.883,474.763L437.278,368.59L478.319,403.647L476.079,407.764ZM463.676,406.349L438.722,385.033L366.117,473.237L404.731,505.415C425.926,473.046 445.213,440.096 463.676,406.349Z" style="fill:rgb(9,9,11);"/>
                <path d="M642,377L781,267L781,467L750,500L642,377ZM712.02,418.013L772.671,375.953C774.426,374.736 774.862,372.323 773.645,370.568C772.428,368.813 770.016,368.376 768.261,369.594L707.61,411.653C705.855,412.87 705.418,415.283 706.635,417.038C707.852,418.793 710.265,419.23 712.02,418.013ZM671.107,378.358L767.854,303.366C769.542,302.058 769.85,299.625 768.542,297.937C767.234,296.249 764.801,295.941 763.113,297.249L666.365,372.242C664.677,373.55 664.369,375.983 665.678,377.671C666.986,379.359 669.419,379.667 671.107,378.358ZM685.404,396.987L767.683,340.153C769.44,338.939 769.881,336.527 768.668,334.77C767.454,333.013 765.042,332.571 763.284,333.785L681.005,390.619C679.248,391.833 678.807,394.245 680.02,396.002C681.234,397.759 683.646,398.201 685.404,396.987ZM726.555,441.121L772.616,409.046C774.369,407.826 774.801,405.412 773.58,403.659C772.36,401.907 769.946,401.475 768.193,402.695L722.133,434.77C720.38,435.99 719.948,438.404 721.168,440.156C722.389,441.909 724.803,442.341 726.555,441.121Z" style="fill:rgb(113,113,123);"/>
                <g transform="matrix(-1,0,0,1,1085,-9)">
                    <path d="M642,377L781,267L781,467L750,500L642,377ZM712.02,418.013L772.671,375.953C774.426,374.736 774.862,372.323 773.645,370.568C772.428,368.813 770.016,368.376 768.261,369.594L707.61,411.653C705.855,412.87 705.418,415.283 706.635,417.038C707.852,418.793 710.265,419.23 712.02,418.013ZM671.107,378.358L767.854,303.366C769.542,302.058 769.85,299.625 768.542,297.937C767.234,296.249 764.801,295.941 763.113,297.249L666.365,372.242C664.677,373.55 664.369,375.983 665.678,377.671C666.986,379.359 669.419,379.667 671.107,378.358ZM685.404,396.987L767.683,340.153C769.44,338.939 769.881,336.527 768.668,334.77C767.454,333.013 765.042,332.571 763.284,333.785L681.005,390.619C679.248,391.833 678.807,394.245 680.02,396.002C681.234,397.759 683.646,398.201 685.404,396.987ZM726.555,441.121L772.616,409.046C774.369,407.826 774.801,405.412 773.58,403.659C772.36,401.907 769.946,401.475 768.193,402.695L722.133,434.77C720.38,435.99 719.948,438.404 721.168,440.156C722.389,441.909 724.803,442.341 726.555,441.121Z" style="fill:rgb(113,113,123);"/>
                </g>
                <path d="M292.157,246.119L247.956,272.041L242.044,261.959L540,87L837.956,261.959L832.044,272.041L787.843,246.119L788.125,535.807L540,683L291.984,535.997L292.157,246.119ZM540,100.774L303.843,239.266L303.843,528.677L540,669.2L776.157,528.677L776.157,239.266L540,100.774Z" style="fill:rgb(9,9,11);"/>
            </g>
        </g>
        <g transform="matrix(1.32099,0,0,0.894205,5739,292.405)">
            <g transform="matrix(1.74922,0,0,2.58409,-2392.21,240.793)">
                <g transform="matrix(192,0,0,192,1217.06,759.697)">
                </g>
                <text x="161.157px" y="759.697px" style="font-family:'Arial-Black', 'Arial', sans-serif;font-weight:900;font-size:192px;fill:rgb(239,177,0);">MELAAKA</text>
            </g>
        </g>
    </g>
</svg>
